<?xml version="1.0" encoding="UTF-8"?>
<svg xmlns="http://www.w3.org/2000/svg" xmlns:xlink="http://www.w3.org/1999/xlink" width="120px" height="120px" viewBox="0 0 120 120" version="1.1">
<g id="surface1">
<path style=" stroke:none;fill-rule:nonzero;fill:rgb(0%,0%,0%);fill-opacity:1;" d="M 83.125 50.503906 C 75.996094 41.9375 68.867188 33.371094 61.738281 24.804688 C 61.210938 24.175781 60.59375 23.945312 60 23.988281 C 59.40625 23.945312 58.785156 24.175781 58.261719 24.804688 C 51.132812 33.371094 44.003906 41.9375 36.875 50.503906 C 35.554688 52.085938 36.320312 54.695312 38.609375 54.695312 L 47.585938 54.695312 L 47.585938 93.558594 C 47.585938 94.898438 48.703125 96.015625 50.042969 96.015625 L 69.957031 96.015625 C 71.296875 96.015625 72.414062 94.898438 72.414062 93.558594 L 72.414062 54.695312 L 81.390625 54.695312 C 83.679688 54.695312 84.445312 52.085938 83.125 50.503906 Z M 83.125 50.503906 "/>
<path style=" stroke:none;fill-rule:nonzero;fill:rgb(0%,0%,0%);fill-opacity:1;" d="M 60 0 C 26.863281 0 0 26.863281 0 60 C 0 93.136719 26.863281 120 60 120 C 93.136719 120 120 93.136719 120 60 C 120 26.863281 93.136719 0 60 0 Z M 60 110.398438 C 32.164062 110.398438 9.601562 87.835938 9.601562 60 C 9.601562 32.164062 32.164062 9.601562 60 9.601562 C 87.835938 9.601562 110.398438 32.164062 110.398438 60 C 110.398438 87.835938 87.835938 110.398438 60 110.398438 Z M 60 110.398438 "/>
</g>
</svg>
